<svg width="510" height="215" viewBox="0 0 510 215" fill="none" xmlns="http://www.w3.org/2000/svg">
<path d="M16.9384 6.92C19.0184 6.92 20.8584 7.224 22.4584 7.832C24.0904 8.44 25.6264 9.352 27.0664 10.568L23.3224 15.032C22.3304 14.264 21.3544 13.688 20.3944 13.304C19.4344 12.92 18.4104 12.728 17.3224 12.728C15.0824 12.728 13.3064 13.672 11.9944 15.56C10.7144 17.448 10.0744 20.36 10.0744 24.296C10.0744 28.168 10.7144 31.048 11.9944 32.936C13.3064 34.792 15.1144 35.72 17.4184 35.72C18.6344 35.72 19.7384 35.496 20.7304 35.048C21.7224 34.568 22.7944 33.896 23.9464 33.032L27.4504 37.544C26.2024 38.792 24.6824 39.816 22.8904 40.616C21.1304 41.416 19.1784 41.816 17.0344 41.816C13.9624 41.816 11.2904 41.144 9.01838 39.8C6.74638 38.456 4.97038 36.472 3.69038 33.848C2.44238 31.192 1.81837 28.008 1.81837 24.296C1.81837 20.68 2.45838 17.56 3.73838 14.936C5.05038 12.312 6.84238 10.328 9.11438 8.984C11.4184 7.608 14.0264 6.92 16.9384 6.92ZM52.1063 27.752C52.1063 28.808 52.0583 29.72 51.9623 30.488H36.1703C36.4263 32.632 37.0343 34.136 37.9943 35C38.9543 35.864 40.2823 36.296 41.9783 36.296C43.0023 36.296 43.9943 36.12 44.9543 35.768C45.9143 35.384 46.9543 34.808 48.0743 34.04L51.1943 38.264C48.2183 40.632 44.9063 41.816 41.2583 41.816C37.1303 41.816 33.9623 40.6 31.7543 38.168C29.5463 35.736 28.4423 32.472 28.4423 28.376C28.4423 25.784 28.9063 23.464 29.8343 21.416C30.7623 19.336 32.1223 17.704 33.9143 16.52C35.7063 15.304 37.8503 14.696 40.3463 14.696C44.0263 14.696 46.9063 15.848 48.9863 18.152C51.0663 20.456 52.1063 23.656 52.1063 27.752ZM44.6663 25.592C44.6023 21.688 43.2263 19.736 40.5383 19.736C39.2263 19.736 38.2023 20.216 37.4663 21.176C36.7623 22.136 36.3303 23.72 36.1703 25.928H44.6663V25.592ZM70.1906 14.792C71.1186 14.792 71.9666 14.904 72.7346 15.128L71.5346 22.472C70.5746 22.248 69.8066 22.136 69.2306 22.136C67.7266 22.136 66.5746 22.664 65.7746 23.72C65.0066 24.744 64.3986 26.296 63.9506 28.376V41H56.3666V15.512H62.9906L63.6146 20.456C64.1906 18.696 65.0546 17.32 66.2066 16.328C67.3906 15.304 68.7186 14.792 70.1906 14.792ZM91.6163 39.8C90.6883 40.44 89.6003 40.936 88.3523 41.288C87.1363 41.64 85.9203 41.816 84.7043 41.816C79.1363 41.784 76.3523 38.712 76.3523 32.6V20.792H72.7523V15.512H76.3523V9.992L83.9363 9.128V15.512H89.7923L88.9763 20.792H83.9363V32.504C83.9363 33.688 84.1283 34.536 84.5123 35.048C84.8963 35.56 85.5043 35.816 86.3363 35.816C87.2003 35.816 88.1123 35.544 89.0723 35L91.6163 39.8ZM101.732 15.512V41H94.1479V15.512H101.732ZM97.8919 2.072C99.2039 2.072 100.276 2.488 101.108 3.32C101.972 4.12 102.404 5.144 102.404 6.392C102.404 7.64 101.972 8.68 101.108 9.512C100.276 10.312 99.2039 10.712 97.8919 10.712C96.5799 10.712 95.5079 10.312 94.6759 9.512C93.8439 8.68 93.4279 7.64 93.4279 6.392C93.4279 5.144 93.8439 4.12 94.6759 3.32C95.5079 2.488 96.5799 2.072 97.8919 2.072ZM119.359 4.568C122.367 4.568 125.183 5.208 127.807 6.488L125.695 11.336C123.807 10.568 121.983 10.184 120.223 10.184C118.751 10.184 117.727 10.44 117.151 10.952C116.607 11.464 116.335 12.344 116.335 13.592V15.512H130.495V41H122.911V20.792H116.335V41H108.751V20.792H104.863V15.512H108.751V13.304C108.751 10.68 109.615 8.568 111.343 6.968C113.071 5.368 115.743 4.568 119.359 4.568ZM147.469 14.696C149.229 14.696 150.813 14.952 152.221 15.464C153.629 15.976 154.957 16.76 156.205 17.816L152.941 22.328C151.341 21.112 149.725 20.504 148.093 20.504C146.397 20.504 145.117 21.128 144.253 22.376C143.389 23.624 142.957 25.64 142.957 28.424C142.957 31.112 143.389 33.016 144.253 34.136C145.117 35.256 146.365 35.816 147.997 35.816C148.861 35.816 149.645 35.688 150.349 35.432C151.053 35.144 151.901 34.696 152.893 34.088L156.205 38.792C153.677 40.808 150.813 41.816 147.613 41.816C145.021 41.816 142.781 41.272 140.893 40.184C139.005 39.064 137.549 37.512 136.525 35.528C135.501 33.512 134.989 31.16 134.989 28.472C134.989 25.784 135.501 23.4 136.525 21.32C137.549 19.24 139.005 17.624 140.893 16.472C142.781 15.288 144.973 14.696 147.469 14.696ZM179.185 33.608C179.185 34.568 179.313 35.272 179.569 35.72C179.857 36.168 180.305 36.504 180.913 36.728L179.329 41.672C177.761 41.544 176.481 41.208 175.489 40.664C174.497 40.088 173.729 39.192 173.185 37.976C171.521 40.536 168.961 41.816 165.505 41.816C162.977 41.816 160.961 41.08 159.457 39.608C157.953 38.136 157.201 36.216 157.201 33.848C157.201 31.064 158.225 28.936 160.273 27.464C162.321 25.992 165.281 25.256 169.153 25.256H171.745V24.152C171.745 22.648 171.425 21.624 170.785 21.08C170.145 20.504 169.025 20.216 167.425 20.216C166.593 20.216 165.585 20.344 164.401 20.6C163.217 20.824 162.001 21.144 160.753 21.56L159.025 16.568C160.625 15.96 162.257 15.496 163.921 15.176C165.617 14.856 167.185 14.696 168.625 14.696C172.273 14.696 174.945 15.448 176.641 16.952C178.337 18.456 179.185 20.712 179.185 23.72V33.608ZM167.713 36.392C169.441 36.392 170.785 35.576 171.745 33.944V29.432H169.873C168.145 29.432 166.849 29.736 165.985 30.344C165.153 30.952 164.737 31.896 164.737 33.176C164.737 34.2 164.993 35 165.505 35.576C166.049 36.12 166.785 36.392 167.713 36.392ZM205.002 38.792C202.826 40.52 200.41 41.512 197.754 41.768V43.304C199.45 43.496 200.698 43.992 201.498 44.792C202.33 45.624 202.746 46.712 202.746 48.056C202.746 49.688 202.09 51.016 200.778 52.04C199.498 53.064 197.77 53.576 195.594 53.576C194.506 53.576 193.498 53.432 192.57 53.144C191.642 52.888 190.858 52.552 190.218 52.136L191.946 48.632C193.034 49.176 194.058 49.448 195.018 49.448C196.522 49.448 197.274 48.968 197.274 48.008C197.274 47.432 196.922 47.016 196.218 46.76C195.514 46.504 194.394 46.376 192.858 46.376L193.434 41.528C190.426 40.92 188.058 39.464 186.33 37.16C184.634 34.856 183.786 31.96 183.786 28.472C183.786 25.784 184.298 23.4 185.322 21.32C186.346 19.24 187.802 17.624 189.69 16.472C191.578 15.288 193.77 14.696 196.266 14.696C198.026 14.696 199.61 14.952 201.018 15.464C202.426 15.976 203.754 16.76 205.002 17.816L201.738 22.328C200.138 21.112 198.522 20.504 196.89 20.504C195.194 20.504 193.914 21.128 193.05 22.376C192.186 23.624 191.754 25.64 191.754 28.424C191.754 31.112 192.186 33.016 193.05 34.136C193.914 35.256 195.162 35.816 196.794 35.816C197.658 35.816 198.442 35.688 199.146 35.432C199.85 35.144 200.698 34.696 201.69 34.088L205.002 38.792ZM218.297 14.696C222.201 14.696 225.257 15.896 227.465 18.296C229.673 20.664 230.777 23.992 230.777 28.28C230.777 31 230.265 33.384 229.241 35.432C228.249 37.448 226.809 39.016 224.921 40.136C223.065 41.256 220.857 41.816 218.297 41.816C214.425 41.816 211.369 40.632 209.129 38.264C206.921 35.864 205.817 32.52 205.817 28.232C205.817 25.512 206.313 23.144 207.305 21.128C208.329 19.08 209.769 17.496 211.625 16.376C213.513 15.256 215.737 14.696 218.297 14.696ZM218.297 20.264C216.761 20.264 215.609 20.92 214.841 22.232C214.073 23.512 213.689 25.512 213.689 28.232C213.689 31.016 214.057 33.048 214.793 34.328C215.561 35.608 216.729 36.248 218.297 36.248C219.833 36.248 220.985 35.608 221.753 34.328C222.521 33.016 222.905 31 222.905 28.28C222.905 25.496 222.521 23.464 221.753 22.184C221.017 20.904 219.865 20.264 218.297 20.264ZM221.081 10.52C220.377 10.52 219.769 10.408 219.257 10.184C218.745 9.96 218.185 9.64 217.577 9.224C216.777 8.648 216.121 8.36 215.609 8.36C215.065 8.36 214.601 8.536 214.217 8.888C213.865 9.208 213.481 9.736 213.065 10.472L209.273 8.648C209.913 6.984 210.761 5.624 211.817 4.568C212.905 3.512 214.121 2.984 215.465 2.984C216.201 2.984 216.825 3.112 217.337 3.368C217.881 3.592 218.473 3.912 219.113 4.328C219.561 4.616 219.913 4.824 220.169 4.952C220.457 5.08 220.745 5.144 221.033 5.144C221.545 5.144 221.977 4.984 222.329 4.664C222.713 4.312 223.113 3.768 223.529 3.032L227.321 4.904C226.649 6.6 225.769 7.96 224.681 8.984C223.625 10.008 222.425 10.52 221.081 10.52ZM257.513 27.752C257.513 28.808 257.465 29.72 257.369 30.488H241.577C241.833 32.632 242.441 34.136 243.401 35C244.361 35.864 245.689 36.296 247.385 36.296C248.409 36.296 249.401 36.12 250.361 35.768C251.321 35.384 252.361 34.808 253.481 34.04L256.601 38.264C253.625 40.632 250.313 41.816 246.665 41.816C242.537 41.816 239.369 40.6 237.161 38.168C234.953 35.736 233.849 32.472 233.849 28.376C233.849 25.784 234.313 23.464 235.241 21.416C236.169 19.336 237.529 17.704 239.321 16.52C241.113 15.304 243.257 14.696 245.753 14.696C249.433 14.696 252.313 15.848 254.393 18.152C256.473 20.456 257.513 23.656 257.513 27.752ZM250.073 25.592C250.009 21.688 248.633 19.736 245.945 19.736C244.633 19.736 243.609 20.216 242.873 21.176C242.169 22.136 241.737 23.72 241.577 25.928H250.073V25.592ZM270.749 14.696C272.573 14.696 274.285 14.968 275.885 15.512C277.485 16.056 278.893 16.824 280.109 17.816L277.325 22.088C275.245 20.776 273.149 20.12 271.037 20.12C270.045 20.12 269.277 20.296 268.733 20.648C268.221 20.968 267.965 21.432 267.965 22.04C267.965 22.52 268.077 22.92 268.301 23.24C268.557 23.528 269.053 23.832 269.789 24.152C270.525 24.472 271.661 24.856 273.197 25.304C275.853 26.072 277.821 27.08 279.101 28.328C280.413 29.544 281.069 31.24 281.069 33.416C281.069 35.144 280.573 36.648 279.581 37.928C278.589 39.176 277.229 40.136 275.501 40.808C273.773 41.48 271.853 41.816 269.741 41.816C267.597 41.816 265.597 41.48 263.741 40.808C261.917 40.136 260.365 39.208 259.085 38.024L262.781 33.896C264.925 35.56 267.181 36.392 269.549 36.392C270.701 36.392 271.597 36.184 272.237 35.768C272.909 35.352 273.245 34.76 273.245 33.992C273.245 33.384 273.117 32.904 272.861 32.552C272.605 32.2 272.109 31.88 271.373 31.592C270.637 31.272 269.469 30.888 267.869 30.44C265.341 29.704 263.453 28.68 262.205 27.368C260.957 26.056 260.333 24.424 260.333 22.472C260.333 21 260.749 19.688 261.581 18.536C262.445 17.352 263.661 16.424 265.229 15.752C266.829 15.048 268.669 14.696 270.749 14.696Z" fill="#3D3D3D"/>
<line x1="142" y1="60" x2="142" y2="207" stroke="#4A76DE" stroke-width="2"/>
<path d="M508.756 207.707C509.147 207.317 509.147 206.683 508.756 206.293L502.392 199.929C502.002 199.538 501.368 199.538 500.978 199.929C500.587 200.319 500.587 200.953 500.978 201.343L506.635 207L500.978 212.657C500.587 213.047 500.587 213.681 500.978 214.071C501.368 214.462 502.002 214.462 502.392 214.071L508.756 207.707ZM141 207V208H508.049V207V206H141V207Z" fill="#4A76DE"/>
</svg>
