<svg width="280" height="52" viewBox="0 0 280 52" fill="none" xmlns="http://www.w3.org/2000/svg">
<path d="M15.12 4.84798C17.2 4.84798 19.04 5.15198 20.64 5.75998C22.272 6.36798 23.808 7.27998 25.248 8.49598L21.504 12.96C20.512 12.192 19.536 11.616 18.576 11.232C17.616 10.848 16.592 10.656 15.504 10.656C13.264 10.656 11.488 11.6 10.176 13.488C8.89602 15.376 8.25602 18.288 8.25602 22.224C8.25602 26.096 8.89602 28.976 10.176 30.864C11.488 32.72 13.296 33.648 15.6 33.648C16.816 33.648 17.92 33.424 18.912 32.976C19.904 32.496 20.976 31.824 22.128 30.96L25.632 35.472C24.384 36.72 22.864 37.744 21.072 38.544C19.312 39.344 17.36 39.744 15.216 39.744C12.144 39.744 9.47202 39.072 7.20002 37.728C4.92802 36.384 3.15202 34.4 1.87202 31.776C0.624016 29.12 1.56164e-05 25.936 1.56164e-05 22.224C1.56164e-05 18.608 0.640016 15.488 1.92002 12.864C3.23202 10.24 5.02402 8.25598 7.29602 6.91198C9.60002 5.53598 12.208 4.84798 15.12 4.84798ZM50.2879 25.68C50.2879 26.736 50.2399 27.648 50.1439 28.416H34.3519C34.6079 30.56 35.2159 32.064 36.1759 32.928C37.1359 33.792 38.4639 34.224 40.1599 34.224C41.1839 34.224 42.1759 34.048 43.1359 33.696C44.0959 33.312 45.1359 32.736 46.2559 31.968L49.3759 36.192C46.3999 38.56 43.0879 39.744 39.4399 39.744C35.3119 39.744 32.1439 38.528 29.9359 36.096C27.7279 33.664 26.6239 30.4 26.6239 26.304C26.6239 23.712 27.0879 21.392 28.0159 19.344C28.9439 17.264 30.3039 15.632 32.0959 14.448C33.8879 13.232 36.0319 12.624 38.5279 12.624C42.2079 12.624 45.0879 13.776 47.1679 16.08C49.2479 18.384 50.2879 21.584 50.2879 25.68ZM42.8479 23.52C42.7839 19.616 41.4079 17.664 38.7199 17.664C37.4079 17.664 36.3839 18.144 35.6479 19.104C34.9439 20.064 34.5119 21.648 34.3519 23.856H42.8479V23.52ZM68.3723 12.72C69.3003 12.72 70.1483 12.832 70.9163 13.056L69.7163 20.4C68.7563 20.176 67.9883 20.064 67.4123 20.064C65.9083 20.064 64.7563 20.592 63.9563 21.648C63.1883 22.672 62.5803 24.224 62.1323 26.304V38.928H54.5483V13.44H61.1723L61.7963 18.384C62.3723 16.624 63.2363 15.248 64.3883 14.256C65.5723 13.232 66.9003 12.72 68.3723 12.72ZM89.7979 37.728C88.8699 38.368 87.7819 38.864 86.5339 39.216C85.3179 39.568 84.1019 39.744 82.8859 39.744C77.3179 39.712 74.5339 36.64 74.5339 30.528V18.72H70.9339V13.44H74.5339V7.91998L82.1179 7.05598V13.44H87.9739L87.1579 18.72H82.1179V30.432C82.1179 31.616 82.3099 32.464 82.6939 32.976C83.0779 33.488 83.6859 33.744 84.5179 33.744C85.3819 33.744 86.2939 33.472 87.2539 32.928L89.7979 37.728ZM99.9135 13.44V38.928H92.3295V13.44H99.9135ZM96.0735 -2.38419e-05C97.3855 -2.38419e-05 98.4575 0.415977 99.2895 1.24798C100.154 2.04798 100.586 3.07198 100.586 4.31998C100.586 5.56798 100.154 6.60798 99.2895 7.43998C98.4575 8.23998 97.3855 8.63998 96.0735 8.63998C94.7615 8.63998 93.6895 8.23998 92.8575 7.43998C92.0255 6.60798 91.6095 5.56798 91.6095 4.31998C91.6095 3.07198 92.0255 2.04798 92.8575 1.24798C93.6895 0.415977 94.7615 -2.38419e-05 96.0735 -2.38419e-05ZM117.54 2.49598C120.548 2.49598 123.364 3.13598 125.988 4.41598L123.876 9.26398C121.988 8.49598 120.164 8.11198 118.404 8.11198C116.932 8.11198 115.908 8.36798 115.332 8.87998C114.788 9.39198 114.516 10.272 114.516 11.52V13.44H128.676V38.928H121.092V18.72H114.516V38.928H106.932V18.72H103.044V13.44H106.932V11.232C106.932 8.60798 107.796 6.49598 109.524 4.89598C111.252 3.29598 113.924 2.49598 117.54 2.49598ZM145.651 12.624C147.411 12.624 148.995 12.88 150.403 13.392C151.811 13.904 153.139 14.688 154.387 15.744L151.123 20.256C149.523 19.04 147.907 18.432 146.275 18.432C144.579 18.432 143.299 19.056 142.435 20.304C141.571 21.552 141.139 23.568 141.139 26.352C141.139 29.04 141.571 30.944 142.435 32.064C143.299 33.184 144.547 33.744 146.179 33.744C147.043 33.744 147.827 33.616 148.531 33.36C149.235 33.072 150.083 32.624 151.075 32.016L154.387 36.72C151.859 38.736 148.995 39.744 145.795 39.744C143.203 39.744 140.963 39.2 139.075 38.112C137.187 36.992 135.731 35.44 134.707 33.456C133.683 31.44 133.171 29.088 133.171 26.4C133.171 23.712 133.683 21.328 134.707 19.248C135.731 17.168 137.187 15.552 139.075 14.4C140.963 13.216 143.155 12.624 145.651 12.624ZM177.367 31.536C177.367 32.496 177.495 33.2 177.751 33.648C178.039 34.096 178.487 34.432 179.095 34.656L177.511 39.6C175.943 39.472 174.663 39.136 173.671 38.592C172.679 38.016 171.911 37.12 171.367 35.904C169.703 38.464 167.143 39.744 163.687 39.744C161.159 39.744 159.143 39.008 157.639 37.536C156.135 36.064 155.383 34.144 155.383 31.776C155.383 28.992 156.407 26.864 158.455 25.392C160.503 23.92 163.463 23.184 167.335 23.184H169.927V22.08C169.927 20.576 169.607 19.552 168.967 19.008C168.327 18.432 167.207 18.144 165.607 18.144C164.775 18.144 163.767 18.272 162.583 18.528C161.399 18.752 160.183 19.072 158.935 19.488L157.207 14.496C158.807 13.888 160.439 13.424 162.103 13.104C163.799 12.784 165.367 12.624 166.807 12.624C170.455 12.624 173.127 13.376 174.823 14.88C176.519 16.384 177.367 18.64 177.367 21.648V31.536ZM165.895 34.32C167.623 34.32 168.967 33.504 169.927 31.872V27.36H168.055C166.327 27.36 165.031 27.664 164.167 28.272C163.335 28.88 162.919 29.824 162.919 31.104C162.919 32.128 163.175 32.928 163.687 33.504C164.231 34.048 164.967 34.32 165.895 34.32ZM203.184 36.72C201.008 38.448 198.592 39.44 195.936 39.696V41.232C197.632 41.424 198.88 41.92 199.68 42.72C200.512 43.552 200.928 44.64 200.928 45.984C200.928 47.616 200.272 48.944 198.96 49.968C197.68 50.992 195.952 51.504 193.776 51.504C192.688 51.504 191.68 51.36 190.752 51.072C189.824 50.816 189.04 50.48 188.4 50.064L190.128 46.56C191.216 47.104 192.24 47.376 193.2 47.376C194.704 47.376 195.456 46.896 195.456 45.936C195.456 45.36 195.104 44.944 194.4 44.688C193.696 44.432 192.576 44.304 191.04 44.304L191.616 39.456C188.608 38.848 186.24 37.392 184.512 35.088C182.816 32.784 181.968 29.888 181.968 26.4C181.968 23.712 182.48 21.328 183.504 19.248C184.528 17.168 185.984 15.552 187.872 14.4C189.76 13.216 191.952 12.624 194.448 12.624C196.208 12.624 197.792 12.88 199.2 13.392C200.608 13.904 201.936 14.688 203.184 15.744L199.92 20.256C198.32 19.04 196.704 18.432 195.072 18.432C193.376 18.432 192.096 19.056 191.232 20.304C190.368 21.552 189.936 23.568 189.936 26.352C189.936 29.04 190.368 30.944 191.232 32.064C192.096 33.184 193.344 33.744 194.976 33.744C195.84 33.744 196.624 33.616 197.328 33.36C198.032 33.072 198.88 32.624 199.872 32.016L203.184 36.72ZM216.479 12.624C220.383 12.624 223.439 13.824 225.647 16.224C227.855 18.592 228.959 21.92 228.959 26.208C228.959 28.928 228.447 31.312 227.423 33.36C226.431 35.376 224.991 36.944 223.103 38.064C221.247 39.184 219.039 39.744 216.479 39.744C212.607 39.744 209.551 38.56 207.311 36.192C205.103 33.792 203.999 30.448 203.999 26.16C203.999 23.44 204.495 21.072 205.487 19.056C206.511 17.008 207.951 15.424 209.807 14.304C211.695 13.184 213.919 12.624 216.479 12.624ZM216.479 18.192C214.943 18.192 213.791 18.848 213.023 20.16C212.255 21.44 211.871 23.44 211.871 26.16C211.871 28.944 212.239 30.976 212.975 32.256C213.743 33.536 214.911 34.176 216.479 34.176C218.015 34.176 219.167 33.536 219.935 32.256C220.703 30.944 221.087 28.928 221.087 26.208C221.087 23.424 220.703 21.392 219.935 20.112C219.199 18.832 218.047 18.192 216.479 18.192ZM219.263 8.44798C218.559 8.44798 217.951 8.33598 217.439 8.11198C216.927 7.88798 216.367 7.56798 215.759 7.15198C214.959 6.57598 214.303 6.28798 213.791 6.28798C213.247 6.28798 212.783 6.46398 212.399 6.81598C212.047 7.13598 211.663 7.66398 211.247 8.39998L207.455 6.57598C208.095 4.91198 208.943 3.55198 209.999 2.49598C211.087 1.43998 212.303 0.911976 213.647 0.911976C214.383 0.911976 215.007 1.03998 215.519 1.29598C216.063 1.51998 216.655 1.83998 217.295 2.25598C217.743 2.54398 218.095 2.75198 218.351 2.87998C218.639 3.00798 218.927 3.07198 219.215 3.07198C219.727 3.07198 220.159 2.91198 220.511 2.59198C220.895 2.23998 221.295 1.69598 221.711 0.959978L225.503 2.83198C224.831 4.52798 223.951 5.88798 222.863 6.91198C221.807 7.93598 220.607 8.44798 219.263 8.44798ZM255.694 25.68C255.694 26.736 255.646 27.648 255.55 28.416H239.758C240.014 30.56 240.622 32.064 241.582 32.928C242.542 33.792 243.87 34.224 245.566 34.224C246.59 34.224 247.582 34.048 248.542 33.696C249.502 33.312 250.542 32.736 251.662 31.968L254.782 36.192C251.806 38.56 248.494 39.744 244.846 39.744C240.718 39.744 237.55 38.528 235.342 36.096C233.134 33.664 232.03 30.4 232.03 26.304C232.03 23.712 232.494 21.392 233.422 19.344C234.35 17.264 235.71 15.632 237.502 14.448C239.294 13.232 241.438 12.624 243.934 12.624C247.614 12.624 250.494 13.776 252.574 16.08C254.654 18.384 255.694 21.584 255.694 25.68ZM248.254 23.52C248.19 19.616 246.814 17.664 244.126 17.664C242.814 17.664 241.79 18.144 241.054 19.104C240.35 20.064 239.918 21.648 239.758 23.856H248.254V23.52ZM268.931 12.624C270.755 12.624 272.467 12.896 274.067 13.44C275.667 13.984 277.075 14.752 278.291 15.744L275.507 20.016C273.427 18.704 271.331 18.048 269.219 18.048C268.227 18.048 267.459 18.224 266.915 18.576C266.403 18.896 266.147 19.36 266.147 19.968C266.147 20.448 266.259 20.848 266.483 21.168C266.739 21.456 267.235 21.76 267.971 22.08C268.707 22.4 269.843 22.784 271.379 23.232C274.035 24 276.003 25.008 277.283 26.256C278.595 27.472 279.251 29.168 279.251 31.344C279.251 33.072 278.755 34.576 277.763 35.856C276.771 37.104 275.411 38.064 273.683 38.736C271.955 39.408 270.035 39.744 267.923 39.744C265.779 39.744 263.779 39.408 261.923 38.736C260.099 38.064 258.547 37.136 257.267 35.952L260.963 31.824C263.107 33.488 265.363 34.32 267.731 34.32C268.883 34.32 269.779 34.112 270.419 33.696C271.091 33.28 271.427 32.688 271.427 31.92C271.427 31.312 271.299 30.832 271.043 30.48C270.787 30.128 270.291 29.808 269.555 29.52C268.819 29.2 267.651 28.816 266.051 28.368C263.523 27.632 261.635 26.608 260.387 25.296C259.139 23.984 258.515 22.352 258.515 20.4C258.515 18.928 258.931 17.616 259.763 16.464C260.627 15.28 261.843 14.352 263.411 13.68C265.011 12.976 266.851 12.624 268.931 12.624Z" fill="#3D3D3D"/>
</svg>
