<svg width="273" height="50" viewBox="0 0 273 50" fill="none" xmlns="http://www.w3.org/2000/svg">
<path d="M22.992 14.784C24.336 14.784 25.728 14.976 27.168 15.36C28.64 15.712 30.016 16.24 31.296 16.944V28.8C31.296 30.752 31.456 32.112 31.776 32.88C32.128 33.648 32.72 34.032 33.552 34.032C34.8 34.032 35.776 33.264 36.48 31.728C37.184 30.16 37.536 27.536 37.536 23.856C37.536 19.568 36.32 16.256 33.888 13.92C31.456 11.552 27.808 10.368 22.944 10.368C19.584 10.368 16.688 11.088 14.256 12.528C11.856 13.936 10.016 15.92 8.736 18.48C7.488 21.008 6.864 23.952 6.864 27.312C6.864 32.496 8.24 36.56 10.992 39.504C13.776 42.48 17.776 43.968 22.992 43.968C24.592 43.968 26.24 43.808 27.936 43.488C29.632 43.2 31.136 42.816 32.448 42.336L34.224 47.568C32.656 48.176 30.864 48.656 28.848 49.008C26.864 49.392 24.896 49.584 22.944 49.584C18.336 49.584 14.304 48.672 10.848 46.848C7.392 45.024 4.72 42.432 2.832 39.072C0.944 35.712 0 31.792 0 27.312C0 23.024 0.976 19.168 2.928 15.744C4.912 12.32 7.648 9.648 11.136 7.728C14.624 5.808 18.576 4.848 22.992 4.848C27.376 4.848 31.184 5.728 34.416 7.488C37.648 9.216 40.112 11.52 41.808 14.4C43.504 17.28 44.352 20.4 44.352 23.76C44.352 26.64 43.92 29.216 43.056 31.488C42.192 33.76 40.96 35.536 39.36 36.816C37.792 38.096 35.968 38.736 33.888 38.736C32.096 38.736 30.64 38.256 29.52 37.296C28.432 36.336 27.744 35.184 27.456 33.84C26.848 35.28 25.968 36.432 24.816 37.296C23.664 38.128 22.256 38.544 20.592 38.544C17.68 38.544 15.488 37.568 14.016 35.616C12.544 33.632 11.808 31.008 11.808 27.744C11.808 23.776 12.784 20.624 14.736 18.288C16.72 15.952 19.472 14.784 22.992 14.784ZM21.6 33.792C22.368 33.792 23.024 33.568 23.568 33.12C24.112 32.672 24.544 32.112 24.864 31.44V20.016C24.128 19.728 23.424 19.584 22.752 19.584C21.44 19.584 20.432 20.224 19.728 21.504C19.024 22.752 18.672 24.848 18.672 27.792C18.672 29.968 18.896 31.52 19.344 32.448C19.824 33.344 20.576 33.792 21.6 33.792Z" fill="#141414"/>
<path d="M65.5935 37.728C64.6655 38.368 63.5775 38.864 62.3295 39.216C61.1135 39.568 59.8975 39.744 58.6815 39.744C53.1135 39.712 50.3295 36.64 50.3295 30.528V18.72H46.7295V13.44H50.3295V7.92L57.9135 7.056V13.44H63.7695L62.9535 18.72H57.9135V30.432C57.9135 31.616 58.1055 32.464 58.4895 32.976C58.8735 33.488 59.4815 33.744 60.3135 33.744C61.1775 33.744 62.0895 33.472 63.0495 32.928L65.5935 37.728Z" fill="#141414"/>
<path d="M83.0531 12.624C85.2611 12.624 86.9891 13.296 88.2371 14.64C89.4851 15.984 90.1091 17.872 90.1091 20.304V38.928H82.5251V21.6C82.5251 20.32 82.3171 19.44 81.9011 18.96C81.4851 18.448 80.8931 18.192 80.1251 18.192C78.5891 18.192 77.1171 19.28 75.7091 21.456V38.928H68.1251V3.312L75.7091 2.544V16.176C76.7651 14.992 77.8851 14.112 79.0691 13.536C80.2531 12.928 81.5811 12.624 83.0531 12.624Z" fill="#141414"/>
<path d="M103.412 13.44V38.928H95.8282V13.44H103.412ZM99.5723 0C100.884 0 101.956 0.416 102.788 1.248C103.652 2.048 104.084 3.072 104.084 4.32C104.084 5.568 103.652 6.608 102.788 7.44C101.956 8.24 100.884 8.64 99.5723 8.64C98.2603 8.64 97.1882 8.24 96.3562 7.44C95.5242 6.608 95.1083 5.568 95.1083 4.32C95.1083 3.072 95.5242 2.048 96.3562 1.248C97.1882 0.416 98.2603 0 99.5723 0Z" fill="#141414"/>
<path d="M137.551 12.624C139.567 12.624 141.183 13.312 142.399 14.688C143.615 16.032 144.223 17.904 144.223 20.304V38.928H136.639V21.6C136.639 19.328 135.919 18.192 134.479 18.192C133.679 18.192 132.975 18.464 132.367 19.008C131.759 19.552 131.167 20.384 130.591 21.504V38.928H123.007V21.6C123.007 19.328 122.287 18.192 120.847 18.192C120.079 18.192 119.375 18.48 118.735 19.056C118.127 19.6 117.535 20.416 116.959 21.504V38.928H109.375V13.44H115.999L116.527 16.416C117.519 15.136 118.607 14.192 119.791 13.584C121.007 12.944 122.383 12.624 123.919 12.624C125.359 12.624 126.591 12.976 127.615 13.68C128.671 14.384 129.439 15.376 129.919 16.656C130.943 15.28 132.063 14.272 133.279 13.632C134.527 12.96 135.951 12.624 137.551 12.624Z" fill="#141414"/>
<path d="M157.506 13.44V38.928H149.922V13.44H157.506ZM153.666 0C154.978 0 156.05 0.416 156.882 1.248C157.746 2.048 158.178 3.072 158.178 4.32C158.178 5.568 157.746 6.608 156.882 7.44C156.05 8.24 154.978 8.64 153.666 8.64C152.354 8.64 151.282 8.24 150.45 7.44C149.618 6.608 149.202 5.568 149.202 4.32C149.202 3.072 149.618 2.048 150.45 1.248C151.282 0.416 152.354 0 153.666 0Z" fill="#141414"/>
<path d="M174.509 12.624C176.269 12.624 177.853 12.88 179.261 13.392C180.669 13.904 181.997 14.688 183.245 15.744L179.981 20.256C178.381 19.04 176.765 18.432 175.133 18.432C173.437 18.432 172.157 19.056 171.293 20.304C170.429 21.552 169.997 23.568 169.997 26.352C169.997 29.04 170.429 30.944 171.293 32.064C172.157 33.184 173.405 33.744 175.037 33.744C175.901 33.744 176.685 33.616 177.389 33.36C178.093 33.072 178.941 32.624 179.933 32.016L183.245 36.72C180.717 38.736 177.853 39.744 174.653 39.744C172.061 39.744 169.821 39.2 167.933 38.112C166.045 36.992 164.589 35.44 163.565 33.456C162.541 31.44 162.029 29.088 162.029 26.4C162.029 23.712 162.541 21.328 163.565 19.248C164.589 17.168 166.045 15.552 167.933 14.4C169.821 13.216 172.013 12.624 174.509 12.624Z" fill="#141414"/>
<path d="M219.174 13.44L213.894 38.928H204.822L201.414 20.208L198.054 38.928H189.078L183.654 13.44H191.334L193.974 33.264L197.958 13.44H205.35L208.854 33.264L211.926 13.44H219.174Z" fill="#141414"/>
<path d="M244.615 25.68C244.615 26.736 244.567 27.648 244.471 28.416H228.679C228.935 30.56 229.543 32.064 230.503 32.928C231.463 33.792 232.791 34.224 234.487 34.224C235.511 34.224 236.503 34.048 237.463 33.696C238.423 33.312 239.463 32.736 240.583 31.968L243.703 36.192C240.727 38.56 237.415 39.744 233.767 39.744C229.639 39.744 226.471 38.528 224.263 36.096C222.055 33.664 220.951 30.4 220.951 26.304C220.951 23.712 221.415 21.392 222.343 19.344C223.271 17.264 224.631 15.632 226.423 14.448C228.215 13.232 230.359 12.624 232.855 12.624C236.535 12.624 239.415 13.776 241.495 16.08C243.575 18.384 244.615 21.584 244.615 25.68ZM237.175 23.52C237.111 19.616 235.735 17.664 233.047 17.664C231.735 17.664 230.711 18.144 229.975 19.104C229.271 20.064 228.839 21.648 228.679 23.856H237.175V23.52Z" fill="#141414"/>
<path d="M263.323 12.624C266.363 12.624 268.699 13.824 270.331 16.224C271.963 18.592 272.779 21.92 272.779 26.208C272.779 28.832 272.363 31.168 271.531 33.216C270.731 35.264 269.563 36.864 268.027 38.016C266.523 39.168 264.731 39.744 262.651 39.744C261.275 39.744 260.011 39.456 258.859 38.88C257.739 38.304 256.779 37.504 255.979 36.48L255.595 38.928H248.875V3.312L256.459 2.496V16.032C257.227 14.976 258.203 14.144 259.387 13.536C260.603 12.928 261.915 12.624 263.323 12.624ZM260.443 34.224C263.419 34.224 264.907 31.552 264.907 26.208C264.907 23.168 264.555 21.072 263.851 19.92C263.147 18.768 262.123 18.192 260.779 18.192C259.083 18.192 257.643 19.184 256.459 21.168V31.776C256.939 32.544 257.515 33.152 258.187 33.6C258.891 34.016 259.643 34.224 260.443 34.224Z" fill="#141414"/>
</svg>
